<svg version="1.0" xmlns="http://www.w3.org/2000/svg"
 width="100" height="100" viewBox="0 0 1024 1024"
 preserveAspectRatio="xMidYMid meet">

<g transform="translate(0.000000,1024) scale(0.1,-0.1)"
fill="#000000" stroke="none">
<path d="M4332 8635 c-285 -34 -394 -60 -437 -105 -25 -26 -30 -40 -30 -80 0
-43 5 -54 33 -82 l33 -33 187 3 c484 9 1042 -117 1465 -330 425 -213 712 -468
986 -878 91 -136 219 -389 276 -542 123 -338 188 -758 166 -1079 -37 -519
-187 -875 -523 -1236 -61 -65 -116 -132 -124 -149 -18 -44 -3 -102 37 -138 49
-43 102 -34 222 37 506 302 841 853 932 1532 11 77 17 194 17 325 0 623 -166
1114 -560 1654 -322 439 -840 794 -1441 987 -127 40 -299 76 -511 105 -160 21
-581 27 -728 9z"/>
<path d="M3960 7804 c-559 -67 -1028 -255 -1420 -570 -589 -473 -929 -1149
-1000 -1990 -17 -193 8 -645 41 -751 30 -96 158 -111 215 -26 15 24 19 57 25
218 8 201 22 311 64 488 85 360 267 755 457 993 260 325 540 551 903 730 258
126 493 196 771 229 149 17 401 20 542 5 456 -49 922 -242 1257 -522 112 -93
200 -186 305 -322 45 -58 91 -113 103 -121 12 -8 41 -15 65 -15 35 0 49 6 72
29 42 42 46 71 20 164 -78 287 -250 566 -502 814 -122 121 -200 184 -328 268
-281 185 -576 297 -950 361 -91 16 -551 28 -640 18z"/>
<path d="M8117 6780 c-34 -27 -57 -70 -57 -108 0 -17 9 -74 20 -128 81 -390
92 -789 34 -1169 -75 -487 -333 -1003 -689 -1373 -755 -786 -1895 -1002 -2828
-536 -251 126 -427 271 -717 592 -65 72 -65 72 -116 72 -62 0 -97 -24 -114
-76 -15 -46 7 -118 91 -291 127 -260 303 -487 522 -669 301 -252 654 -408
1102 -485 173 -30 510 -37 704 -15 348 41 622 124 933 283 280 143 506 309
739 542 165 166 247 267 352 437 197 317 301 551 382 858 63 237 87 405 92
648 10 407 -38 707 -181 1142 -83 249 -107 285 -193 293 -39 4 -53 1 -76 -17z"/>
<path d="M3611 6480 c-251 -91 -563 -313 -747 -533 -254 -303 -398 -627 -476
-1067 -25 -144 -37 -578 -19 -716 81 -616 347 -1172 771 -1608 365 -376 751
-612 1280 -784 290 -95 519 -127 880 -126 240 0 266 2 433 32 264 47 492 108
533 144 49 43 60 87 36 141 -16 35 -28 47 -61 61 -40 16 -49 15 -164 -4 -356
-59 -722 -47 -1066 35 -513 123 -1050 457 -1393 865 -305 363 -510 807 -595
1286 -26 148 -28 178 -27 424 0 283 8 358 60 564 67 268 185 525 343 751 69
99 206 238 289 294 74 50 102 90 102 146 0 49 -22 83 -66 101 -42 18 -48 17
-113 -6z"/>
<path d="M4986 6269 c-249 -27 -485 -136 -668 -308 -113 -107 -175 -190 -243
-323 -60 -120 -87 -200 -110 -332 -97 -561 251 -1128 795 -1296 140 -43 210
-53 355 -53 589 2 1071 417 1156 993 26 182 0 416 -66 590 -135 353 -472 634
-852 709 -121 24 -263 32 -367 20z"/>
</g>
</svg>
